<?xml version="1.0" encoding="iso-8859-1"?>
<!-- Generator: Adobe Illustrator 19.0.0, SVG Export Plug-In . SVG Version: 6.00 Build 0)  -->
<svg version="1.1" id="Layer_1" xmlns="http://www.w3.org/2000/svg" xmlns:xlink="http://www.w3.org/1999/xlink" x="0px" y="0px"
  viewBox="0 0 512.001 512.001" style="enable-background:new 0 0 512.001 512.001;" xml:space="preserve">
  <path style="fill:#FFFFFF;" d="M313.929,336.404l-55.442-28.646c-1.561-0.806-3.416-0.806-4.977,0l-55.442,28.646
	c-3.609,1.865-7.91-0.755-7.91-4.816V190.362l131.681,0.306v140.92C321.841,335.649,317.538,338.268,313.929,336.404z" />
  <g>
    <path style="fill:#000000;" d="M316.416,351.337c-3.129,0-6.26-0.765-9.058-2.21l-51.356-26.535l-51.354,26.535
		c-2.798,1.445-5.932,2.21-9.06,2.21c-5.131,0-10.001-1.966-13.711-5.538c-3.891-3.748-6.035-8.795-6.035-14.213V190.361
		c0-3.804,1.514-7.452,4.208-10.138c2.684-2.68,6.323-4.183,10.115-4.183c0.011,0,0.023,0,0.033,0l131.68,0.306
		c7.897,0.019,14.289,6.425,14.289,14.322v140.919C336.162,342.476,327.303,351.337,316.416,351.337z M256,292.83
		c3.138,0,6.273,0.762,9.061,2.203l42.458,21.938V204.956l-103.037-0.239v112.254l42.456-21.936
		C249.727,293.592,252.862,292.83,256,292.83z" />
    <path style="fill:#000000;" d="M399.424,499.054H112.575c-36.967,0-67.041-30.074-67.041-67.041V190.514
		c0-7.91,6.413-14.322,14.322-14.322h392.286c7.908,0,14.322,6.412,14.322,14.322v31.861c0,7.91-6.413,14.322-14.322,14.322
		s-14.322-6.412-14.322-14.322v-17.54H74.179v227.178c0,21.172,17.225,38.398,38.398,38.398h286.849
		c21.172,0,38.398-17.225,38.398-38.398V298.966c0-7.91,6.413-14.322,14.322-14.322s14.322,6.412,14.322,14.322v133.048
		C466.464,468.98,436.391,499.054,399.424,499.054z" />
  </g>
  <path style="fill:#FFFFFF;" d="M445.564,190.514H66.436c-28.782,0-52.115-23.333-52.115-52.113l0,0
	c0-28.782,23.333-52.113,52.113-52.113h379.129c28.782,0,52.113,23.333,52.113,52.113l0,0
	C497.678,167.181,474.346,190.514,445.564,190.514z" />
  <path style="fill:#000000;" d="M445.564,204.835H66.436C29.803,204.835,0,175.032,0,138.4s29.803-66.436,66.436-66.436h379.129
	c36.633,0,66.436,29.803,66.436,66.436S482.197,204.835,445.564,204.835z M66.436,100.607c-20.839,0-37.793,16.954-37.793,37.793
	c0,20.838,16.954,37.792,37.793,37.792h379.129c20.839,0,37.793-16.954,37.793-37.792c0-20.839-16.954-37.793-37.793-37.793H66.436z
	" />
  <path style="fill:#FFFFFF;" d="M254.044,86.285c-6.155-33.57-35.54-59.016-70.889-59.016s-64.735,25.447-70.89,59.016H254.044z" />
  <path style="fill:#000000;" d="M254.044,100.607h-141.78c-4.251,0-8.281-1.888-11.003-5.153c-2.72-3.265-3.85-7.57-3.083-11.752
	c7.517-40.997,43.256-70.754,84.977-70.754s77.458,29.756,84.976,70.754c0.766,4.18-0.364,8.486-3.083,11.752
	C262.324,98.719,258.294,100.607,254.044,100.607z M132.271,71.964h101.764c-9.839-18.297-29.144-30.373-50.88-30.373
	S142.112,53.667,132.271,71.964z" />
  <path style="fill:#FFFFFF;" d="M399.736,86.285c-6.155-33.57-35.54-59.016-70.89-59.016s-64.735,25.447-70.889,59.016H399.736z" />
  <path style="fill:#000000;" d="M399.736,100.607h-141.78c-4.251,0-8.281-1.888-11.003-5.153c-2.72-3.265-3.85-7.57-3.083-11.752
	c7.517-40.998,43.254-70.754,84.976-70.754s77.46,29.757,84.977,70.754c0.766,4.18-0.364,8.486-3.083,11.752
	C408.017,98.719,403.987,100.607,399.736,100.607z M277.965,71.964h101.764c-9.839-18.297-29.146-30.373-50.882-30.373
	S287.804,53.667,277.965,71.964z" />
  <g></g>
  <g></g>
  <g></g>
  <g></g>
  <g></g>
  <g></g>
  <g></g>
  <g></g>
  <g></g>
  <g></g>
  <g></g>
  <g></g>
  <g></g>
  <g></g>
  <g></g>
</svg>